<?xml version="1.0" encoding="utf-8"?>
<!-- Generator: Adobe Illustrator 27.0.0, SVG Export Plug-In . SVG Version: 6.00 Build 0)  -->
<svg version="1.1" id="Ebene_1" xmlns="http://www.w3.org/2000/svg" xmlns:xlink="http://www.w3.org/1999/xlink" x="0px" y="0px"
	 viewBox="0 0 48 48" style="enable-background:new 0 0 48 48;" xml:space="preserve">
<style type="text/css">
	.st0{fill:#FFFFFF;}
</style>
<path class="st0" d="M6.1,28.9c-0.3,0-0.6-0.1-0.8-0.3C5.1,28.4,5,28.2,5,27.9s0.1-0.5,0.3-0.8c0.2-0.2,0.4-0.3,0.8-0.3
	c0.3,0,0.5,0.1,0.8,0.3c0.2,0.2,0.3,0.5,0.3,0.8S7,28.4,6.8,28.6C6.6,28.9,6.3,28.9,6.1,28.9z M6.1,21.1c-0.3,0-0.6-0.1-0.8-0.3
	C5.1,20.6,5,20.4,5,20.1c0-0.3,0.1-0.6,0.3-0.8C5.5,19.1,5.8,19,6.1,19c0.3,0,0.5,0.1,0.8,0.3c0.2,0.2,0.3,0.4,0.3,0.8
	c0,0.3-0.1,0.5-0.3,0.8C6.6,21,6.3,21.1,6.1,21.1z M12,37.9c-0.5,0-1-0.2-1.4-0.5c-0.4-0.4-0.6-0.8-0.6-1.4c0-0.5,0.2-1,0.5-1.4
	c0.4-0.4,0.8-0.6,1.3-0.6c0.5,0,1,0.2,1.4,0.5c0.4,0.4,0.6,0.8,0.6,1.4c0,0.5-0.2,1-0.5,1.4C13,37.7,12.5,37.9,12,37.9z M12,29.8
	c-0.5,0-1-0.2-1.4-0.5c-0.4-0.4-0.6-0.8-0.6-1.4c0-0.5,0.2-1,0.5-1.4C11,26.2,11.5,26,12,26c0.5,0,1,0.2,1.4,0.5
	c0.4,0.4,0.6,0.8,0.6,1.4c0,0.5-0.2,1-0.5,1.4C13,29.6,12.5,29.8,12,29.8z M12,22c-0.5,0-1-0.2-1.4-0.5c-0.4-0.4-0.6-0.8-0.6-1.3
	c0-0.5,0.2-1,0.5-1.4c0.4-0.4,0.8-0.6,1.3-0.6c0.5,0,1,0.2,1.4,0.5c0.4,0.4,0.6,0.8,0.6,1.4c0,0.5-0.2,1-0.5,1.4
	C13,21.8,12.5,22,12,22z M12,13.9c-0.5,0-1-0.2-1.4-0.5c-0.4-0.4-0.6-0.8-0.6-1.4c0-0.5,0.2-1,0.5-1.4c0.4-0.4,0.8-0.6,1.3-0.6
	c0.5,0,1,0.2,1.4,0.5c0.4,0.4,0.6,0.8,0.6,1.3c0,0.5-0.2,1-0.5,1.4C13,13.7,12.5,13.9,12,13.9z M20.1,30.6c-0.8,0-1.4-0.3-1.9-0.8
	s-0.8-1.2-0.8-1.9s0.3-1.4,0.8-1.9s1.2-0.8,1.9-0.8s1.4,0.3,1.9,0.8s0.8,1.2,0.8,1.9s-0.3,1.4-0.8,1.9S20.9,30.6,20.1,30.6z
	 M20.1,22.8c-0.8,0-1.4-0.3-1.9-0.8c-0.5-0.5-0.8-1.2-0.8-1.9s0.3-1.4,0.8-1.9s1.2-0.8,1.9-0.8s1.4,0.3,1.9,0.8s0.8,1.2,0.8,1.9
	S22.5,21.5,22,22C21.5,22.5,20.9,22.8,20.1,22.8z M20.1,37.9c-0.5,0-1-0.2-1.4-0.5c-0.4-0.4-0.5-0.8-0.5-1.4c0-0.5,0.2-1,0.5-1.4
	c0.4-0.4,0.8-0.6,1.4-0.6c0.5,0,1,0.2,1.4,0.5C21.8,35,22,35.5,22,36c0,0.5-0.2,1-0.5,1.4C21.1,37.7,20.6,37.9,20.1,37.9z
	 M20.1,13.9c-0.5,0-1-0.2-1.4-0.5c-0.4-0.4-0.5-0.8-0.5-1.4c0-0.5,0.2-1,0.5-1.4c0.4-0.4,0.8-0.6,1.4-0.6c0.5,0,1,0.2,1.4,0.5
	C21.8,11,22,11.5,22,12c0,0.5-0.2,1-0.5,1.4C21.1,13.7,20.6,13.9,20.1,13.9z M20.1,43c-0.3,0-0.5-0.1-0.8-0.3s-0.3-0.5-0.3-0.8
	s0.1-0.5,0.3-0.8s0.5-0.3,0.8-0.3s0.5,0.1,0.8,0.3s0.3,0.5,0.3,0.8s-0.1,0.5-0.3,0.8S20.4,43,20.1,43z M20.1,7.1
	c-0.3,0-0.5-0.1-0.8-0.3c-0.2-0.2-0.3-0.4-0.3-0.8c0-0.3,0.1-0.5,0.3-0.8C19.6,5.1,19.8,5,20.1,5s0.5,0.1,0.8,0.3
	c0.2,0.2,0.3,0.5,0.3,0.8c0,0.3-0.1,0.6-0.3,0.8C20.6,7,20.4,7.1,20.1,7.1z M27.9,30.6c-0.8,0-1.4-0.3-1.9-0.8
	c-0.5-0.5-0.8-1.2-0.8-1.9s0.3-1.4,0.8-1.9c0.5-0.5,1.2-0.8,1.9-0.8s1.4,0.3,1.9,0.8s0.8,1.2,0.8,1.9s-0.3,1.4-0.8,1.9
	S28.6,30.6,27.9,30.6z M27.9,22.8c-0.8,0-1.4-0.3-1.9-0.8c-0.5-0.5-0.8-1.2-0.8-1.9s0.3-1.4,0.8-1.9c0.5-0.5,1.2-0.8,1.9-0.8
	s1.4,0.3,1.9,0.8s0.8,1.2,0.8,1.9s-0.3,1.4-0.8,1.9C29.3,22.5,28.6,22.8,27.9,22.8z M27.9,37.9c-0.5,0-1-0.2-1.4-0.5
	C26.2,37,26,36.5,26,36c0-0.5,0.2-1,0.5-1.4c0.4-0.4,0.8-0.6,1.3-0.6c0.5,0,1,0.2,1.4,0.5c0.4,0.4,0.6,0.8,0.6,1.4
	c0,0.5-0.2,1-0.5,1.4C28.9,37.7,28.4,37.9,27.9,37.9z M27.9,13.9c-0.5,0-1-0.2-1.4-0.5C26.2,13,26,12.5,26,12c0-0.5,0.2-1,0.5-1.4
	c0.4-0.4,0.8-0.6,1.3-0.6c0.5,0,1,0.2,1.4,0.5c0.4,0.4,0.6,0.8,0.6,1.3c0,0.5-0.2,1-0.5,1.4C28.9,13.7,28.4,13.9,27.9,13.9z
	 M27.9,7.1c-0.3,0-0.5-0.1-0.8-0.3C27,6.6,26.9,6.3,26.9,6c0-0.3,0.1-0.5,0.3-0.8C27.4,5.1,27.6,5,27.9,5c0.3,0,0.6,0.1,0.8,0.3
	C28.9,5.5,29,5.7,29,6c0,0.3-0.1,0.6-0.3,0.8C28.5,7,28.2,7.1,27.9,7.1z M28.2,43c-0.3,0-0.6-0.1-0.8-0.3c-0.2-0.2-0.3-0.5-0.3-0.8
	s0.1-0.5,0.3-0.8c0.2-0.2,0.4-0.3,0.8-0.3c0.3,0,0.5,0.1,0.8,0.3c0.2,0.2,0.3,0.5,0.3,0.8s-0.1,0.5-0.3,0.8
	C28.8,42.9,28.5,43,28.2,43z M36,37.9c-0.5,0-1-0.2-1.4-0.5c-0.4-0.4-0.5-0.8-0.5-1.4c0-0.5,0.2-1,0.5-1.4c0.4-0.4,0.8-0.6,1.3-0.6
	c0.5,0,1,0.2,1.4,0.5c0.4,0.4,0.5,0.8,0.5,1.4c0,0.5-0.2,1-0.5,1.4C37,37.7,36.5,37.9,36,37.9z M36,29.8c-0.5,0-1-0.2-1.4-0.5
	c-0.4-0.4-0.5-0.8-0.5-1.4c0-0.5,0.2-1,0.5-1.4C35,26.2,35.5,26,36,26c0.5,0,1,0.2,1.4,0.5c0.4,0.4,0.5,0.8,0.5,1.4
	c0,0.5-0.2,1-0.5,1.4C37,29.6,36.5,29.8,36,29.8z M36,22c-0.5,0-1-0.2-1.4-0.5c-0.4-0.4-0.5-0.8-0.5-1.3c0-0.5,0.2-1,0.5-1.4
	c0.4-0.4,0.8-0.6,1.3-0.6c0.5,0,1,0.2,1.4,0.5c0.4,0.4,0.5,0.8,0.5,1.4c0,0.5-0.2,1-0.5,1.4C37,21.8,36.5,22,36,22z M36,13.9
	c-0.5,0-1-0.2-1.4-0.5c-0.4-0.4-0.5-0.8-0.5-1.4c0-0.5,0.2-1,0.5-1.4c0.4-0.4,0.8-0.6,1.3-0.6c0.5,0,1,0.2,1.4,0.5
	c0.4,0.4,0.5,0.8,0.5,1.3c0,0.5-0.2,1-0.5,1.4C37,13.7,36.5,13.9,36,13.9z M42,28.9c-0.3,0-0.5-0.1-0.8-0.3s-0.3-0.5-0.3-0.8
	s0.1-0.5,0.3-0.8s0.5-0.3,0.8-0.3s0.5,0.1,0.8,0.3s0.3,0.5,0.3,0.8s-0.1,0.5-0.3,0.8S42.2,28.9,42,28.9z M42,21.1
	c-0.3,0-0.5-0.1-0.8-0.3c-0.2-0.2-0.3-0.5-0.3-0.8c0-0.3,0.1-0.6,0.3-0.8c0.2-0.2,0.5-0.3,0.8-0.3s0.5,0.1,0.8,0.3
	c0.2,0.2,0.3,0.4,0.3,0.8c0,0.3-0.1,0.5-0.3,0.8C42.5,21,42.2,21.1,42,21.1z"/>
</svg>
