<?xml version="1.0" encoding="utf-8"?>
<!-- Generator: Adobe Illustrator 27.0.0, SVG Export Plug-In . SVG Version: 6.00 Build 0)  -->
<svg version="1.1" id="Ebene_1" xmlns="http://www.w3.org/2000/svg" xmlns:xlink="http://www.w3.org/1999/xlink" x="0px" y="0px"
	 viewBox="0 0 48 48" style="enable-background:new 0 0 48 48;" xml:space="preserve">
<style type="text/css">
	.st0{fill:#FFFFFF;}
</style>
<path class="st0" d="M11,24.1c0,0.7,0,1.3,0.1,1.9c0.1,0.6,0.2,1.2,0.4,1.8c0.1,0.4,0.1,0.8-0.1,1.2s-0.4,0.7-0.8,0.9
	c-0.4,0.2-0.7,0.2-1.1,0c-0.4-0.2-0.6-0.4-0.8-0.8c-0.3-0.8-0.5-1.7-0.6-2.5S8,25,8,24.1c0-4.4,1.6-8.1,4.7-11.3S19.6,8.1,24,8.1
	h2.1l-3-3.1c-0.3-0.3-0.4-0.6-0.4-0.9c0-0.4,0.1-0.7,0.4-1s0.6-0.4,1-0.4s0.7,0.1,1,0.4l5.4,5.4C30.8,8.8,31,9.2,31,9.6
	s-0.1,0.8-0.5,1.1L25.1,16c-0.3,0.3-0.6,0.4-1,0.4s-0.7-0.1-1-0.4c-0.3-0.3-0.4-0.6-0.4-1c0-0.4,0.1-0.7,0.4-1l3-2.9H24
	c-3.6,0-6.6,1.3-9.2,3.8S11,20.5,11,24.1z M37,24c0-0.7,0-1.3-0.1-1.9c-0.1-0.6-0.2-1.2-0.4-1.9c-0.1-0.4-0.1-0.8,0-1.2
	c0.1-0.4,0.4-0.7,0.8-0.9c0.4-0.2,0.7-0.2,1.1,0c0.4,0.2,0.6,0.4,0.8,0.8c0.3,0.8,0.5,1.7,0.6,2.5c0.1,0.8,0.2,1.7,0.2,2.5
	c0,4.4-1.6,8.1-4.7,11.3C32.1,38.5,28.4,40,24,40h-2.2l3.1,3c0.3,0.3,0.4,0.6,0.4,1c0,0.4-0.1,0.7-0.4,1c-0.3,0.3-0.6,0.4-1,0.4
	s-0.7-0.1-1-0.4l-5.5-5.4c-0.3-0.3-0.4-0.6-0.4-1c0-0.4,0.1-0.8,0.4-1l5.5-5.5c0.3-0.3,0.6-0.4,1-0.4s0.7,0.1,1,0.4
	c0.3,0.3,0.4,0.6,0.4,1c0,0.4-0.1,0.7-0.4,1l-3.1,3H24c3.6,0,6.6-1.3,9.2-3.8C35.7,30.7,37,27.6,37,24z"/>
</svg>
