<?xml version="1.0" encoding="utf-8"?>
<!-- Generator: Adobe Illustrator 27.0.0, SVG Export Plug-In . SVG Version: 6.00 Build 0)  -->
<svg version="1.1" id="Ebene_1" xmlns="http://www.w3.org/2000/svg" xmlns:xlink="http://www.w3.org/1999/xlink" x="0px" y="0px"
	 viewBox="0 0 48 48" style="enable-background:new 0 0 48 48;" xml:space="preserve">
<style type="text/css">
	.st0{fill:#FFFFFF;}
</style>
<path class="st0" d="M14,44V31.5h-3.6c-1.2,0-2.2-0.4-3.1-1.2c-0.9-0.8-1.3-1.8-1.3-3c0-0.9,0.2-1.7,0.7-2.5C7.1,24,7.8,23.4,8.6,23
	l14-6v-2.1c-1.2-0.3-2.2-1-3-2s-1.2-2.2-1.2-3.4c0-1.5,0.5-2.8,1.6-3.9s2.4-1.6,4-1.6s2.8,0.5,3.9,1.6s1.6,2.4,1.6,3.9h-3
	c0-0.7-0.3-1.3-0.8-1.8S24.8,7,24.1,7c-0.7,0-1.3,0.2-1.8,0.7s-0.8,1.1-0.8,1.8c0,0.8,0.3,1.4,0.8,1.9s1.2,0.8,1.9,0.8
	c0.4,0,0.8,0.1,1.1,0.4c0.3,0.3,0.4,0.6,0.4,1V17l13.8,6c0.8,0.4,1.5,0.9,1.9,1.7s0.7,1.6,0.7,2.5c0,1.2-0.4,2.2-1.3,3
	c-0.9,0.8-1.9,1.2-3.1,1.2H34V44H14z M17,29h14H17z M10.4,28.5H14V26h20v2.5h3.5c0.4,0,0.7-0.1,1-0.4c0.3-0.2,0.5-0.6,0.5-0.9
	c0-0.3-0.1-0.6-0.2-0.8c-0.2-0.2-0.4-0.4-0.6-0.5l-14-6.3L9.9,25.9c-0.3,0.1-0.5,0.3-0.7,0.5C9.1,26.7,9,26.9,9,27.2
	c0,0.4,0.1,0.7,0.4,1S10.1,28.5,10.4,28.5z M17,41h14V29H17V41z"/>
</svg>
