<?xml version="1.0" encoding="utf-8"?>
<!-- Generator: Adobe Illustrator 27.0.0, SVG Export Plug-In . SVG Version: 6.00 Build 0)  -->
<svg version="1.1" id="Ebene_1" xmlns="http://www.w3.org/2000/svg" xmlns:xlink="http://www.w3.org/1999/xlink" x="0px" y="0px"
	 viewBox="0 0 48 48" style="enable-background:new 0 0 48 48;" xml:space="preserve">
<style type="text/css">
	.st0{fill:#FFFFFF;}
</style>
<path class="st0" d="M11.1,44c-1.5,0-2.7-0.5-3.7-1.5s-1.5-2.3-1.5-3.7V34c0-0.4,0.1-0.8,0.4-1.1c0.3-0.3,0.6-0.4,1.1-0.4h4.8V5.3
	c0-0.3,0.1-0.5,0.4-0.5c0.3,0,0.5,0.1,0.8,0.4L15.2,7l2.4-2.5c0.2-0.2,0.3-0.2,0.5-0.2c0.2,0,0.4,0.1,0.6,0.2L21.1,7l2.5-2.5
	c0.2-0.2,0.3-0.2,0.5-0.2c0.2,0,0.4,0.1,0.6,0.2L27.1,7l2.5-2.5c0.2-0.2,0.3-0.2,0.5-0.2c0.2,0,0.4,0.1,0.6,0.2L33.2,7l2.5-2.5
	c0.2-0.2,0.3-0.2,0.5-0.2c0.2,0,0.4,0.1,0.6,0.2L39.2,7L41,5.2c0.3-0.3,0.5-0.4,0.8-0.4s0.4,0.2,0.4,0.5v33.4c0,1.5-0.5,2.7-1.5,3.7
	c-1,1-2.3,1.5-3.7,1.5H11.1z M36.9,41c0.7,0,1.2-0.2,1.6-0.6c0.4-0.4,0.6-1,0.6-1.6V9h-24v23.5h18c0.4,0,0.8,0.1,1.1,0.4
	c0.3,0.3,0.4,0.6,0.4,1.1v4.7c0,0.7,0.2,1.2,0.6,1.6C35.7,40.8,36.2,41,36.9,41z M19.3,16.9c-0.4,0-0.7-0.1-1-0.5
	c-0.3-0.3-0.4-0.7-0.4-1.1c0-0.4,0.1-0.8,0.4-1c0.3-0.3,0.6-0.4,1.1-0.4h9c0.4,0,0.8,0.1,1.1,0.4c0.3,0.3,0.4,0.6,0.4,1.1
	c0,0.4-0.1,0.8-0.4,1.1c-0.3,0.3-0.6,0.4-1.1,0.4H19.3z M19.3,23.6c-0.4,0-0.7-0.2-1-0.5s-0.4-0.7-0.4-1.1c0-0.4,0.1-0.8,0.4-1
	s0.6-0.4,1.1-0.4h9c0.4,0,0.8,0.1,1.1,0.4c0.3,0.3,0.4,0.6,0.4,1.1c0,0.4-0.1,0.8-0.4,1.1s-0.6,0.4-1.1,0.4H19.3z M34.5,16.9
	c-0.4,0-0.8-0.1-1-0.5c-0.3-0.3-0.5-0.6-0.5-1c0-0.4,0.2-0.8,0.5-1.1s0.7-0.4,1-0.4c0.4,0,0.8,0.1,1,0.4c0.3,0.3,0.5,0.6,0.5,1.1
	c0,0.4-0.1,0.8-0.5,1C35.2,16.8,34.9,16.9,34.5,16.9z M34.5,23.4c-0.4,0-0.8-0.2-1-0.5s-0.5-0.6-0.5-1c0-0.4,0.2-0.8,0.5-1.1
	c0.3-0.3,0.7-0.4,1-0.4c0.4,0,0.8,0.1,1,0.4c0.3,0.3,0.5,0.6,0.5,1.1c0,0.4-0.1,0.8-0.5,1C35.2,23.2,34.9,23.4,34.5,23.4z M11.1,41
	h20.6v-5.5H8.9v3.2c0,0.7,0.2,1.2,0.6,1.6S10.4,41,11.1,41z M8.9,41v-5.5V41z"/>
</svg>
