<?xml version="1.0" encoding="utf-8"?>
<!-- Generator: Adobe Illustrator 27.0.0, SVG Export Plug-In . SVG Version: 6.00 Build 0)  -->
<svg version="1.1" id="Ebene_1" xmlns="http://www.w3.org/2000/svg" xmlns:xlink="http://www.w3.org/1999/xlink" x="0px" y="0px"
	 viewBox="0 0 48 48" style="enable-background:new 0 0 48 48;" xml:space="preserve">
<style type="text/css">
	.st0{fill:#FFFFFF;}
</style>
<path class="st0" d="M42.7,17.7c-0.9-1.9-2-3.6-3.5-5.1C37.7,11.2,36,10,34,9.2S29.9,8,27.7,8c-3.4,0-6.5,0.6-9.4,1.9
	s-5.4,3-7.5,5.3c-2.1,2.2-3.8,4.9-5,8C4.6,26.3,4,29.7,4,33.2V37c0,0.8,0.3,1.5,0.9,2.1C5.5,39.7,6.2,40,7,40h21.4
	c2.2,0,4.2-0.4,6.1-1.3c1.9-0.8,3.5-2,5-3.4c1.4-1.5,2.5-3.2,3.4-5.1c0.8-2,1.2-4.1,1.2-6.2C44,21.7,43.6,19.6,42.7,17.7z
	 M10.2,20.7c1.1-1.8,2.5-3.5,4.1-5l7.7,3.2c0.9,0.3,1.5,0.8,2,1.4c0.4,0.7,0.7,1.5,0.7,2.5c0,1.1-0.4,2.1-1.2,2.9
	c-0.8,0.8-1.8,1.2-3,1.2H7.7C8.2,24.5,9.1,22.5,10.2,20.7z"/>
</svg>
