<?xml version="1.0" encoding="utf-8"?>
<!-- Generator: Adobe Illustrator 27.6.1, SVG Export Plug-In . SVG Version: 6.00 Build 0)  -->
<svg version="1.1" id="Ebene_1" xmlns="http://www.w3.org/2000/svg" xmlns:xlink="http://www.w3.org/1999/xlink" x="0px" y="0px"
	 viewBox="0 0 48 48" style="enable-background:new 0 0 48 48;" xml:space="preserve">
<style type="text/css">
	.st0{fill:#FFFFFF;}
</style>
<path class="st0" d="M42.7,16.5c-0.9-1.9-2-3.6-3.5-5.1C37.7,10,35.9,8.8,33.9,8s-4.1-1.2-6.3-1.2c-3.4,0-6.5,0.6-9.4,1.9
	s-5.4,3-7.5,5.3c-2.1,2.2-3.8,4.9-5,8c-1.2,3.1-1.8,6.5-1.8,10v3.8c0,0.8,0.3,1.5,0.9,2.1c0.6,0.6,1.3,0.9,2.1,0.9h21.4
	c2.2,0,4.2-0.4,6.1-1.3c1.9-0.8,3.5-2,5-3.4c1.4-1.5,2.5-3.2,3.4-5.1c0.8-2,1.2-4.1,1.2-6.2C43.9,20.5,43.5,18.4,42.7,16.5z
	 M10.1,19.5c1.1-1.8,2.5-3.5,4.1-5l7.7,3.2c0.9,0.3,1.5,0.8,2,1.4c0.4,0.7,0.7,1.5,0.7,2.5c0,1.1-0.4,2.1-1.2,2.9
	c-0.8,0.8-1.8,1.2-3,1.2H7.6C8.1,23.3,9,21.3,10.1,19.5z"/>
</svg>
