<?xml version="1.0" encoding="UTF-8"?><svg id="Ebene_1" xmlns="http://www.w3.org/2000/svg" width="48" height="48" viewBox="0 0 48 48"><defs><style>.cls-1{fill:#fff;}</style></defs><g><path class="cls-1" d="M21.74927,26.19897c-.16113,.02118-.32196,.04291-.49365,.04291H11.36035c.38654-1.85535,1.08228-3.40149,1.93268-4.79303,.45459-.7439,.97968-1.46295,1.55505-2.15088l-1.55817-1.55811c-1.40308,1.59869-2.56421,3.48663-3.39838,5.64166-.92767,2.39655-1.39154,5.02496-1.39154,7.73071v2.93762c0,.61847,.23193,1.15961,.69574,1.62347,.46387,.46381,1.005,.69574,1.62347,.69574H27.36285c1.38513,0,2.66449-.21857,3.88623-.67053l-9.49982-9.49957Z"/><path class="cls-1" d="M36.95343,31.50397c.61975-.83789,1.15765-1.73712,1.6189-2.71094,.61847-1.54614,.92767-3.16962,.92767-4.79303-.07733-1.77808-.38654-3.40149-1.08228-4.8703-.6958-1.46887-1.54614-2.78308-2.70575-3.94269-1.15961-1.08228-2.47382-2.00995-4.01996-2.62842s-3.16956-.92767-4.8703-.92767c-2.62848,0-5.02496,.46387-7.26685,1.46881-.23114,.10364-.44495,.2254-.66949,.33575l18.06805,18.06848Z"/></g><path class="cls-1" d="M24,0C10.74518,0,0,10.74518,0,24s10.74518,24,24,24,24-10.74518,24-24S37.25482,0,24,0Zm21,24c0,5.12372-1.84967,9.82001-4.90948,13.46924L10.53076,7.90948c3.64923-3.05981,8.34552-4.90948,13.46924-4.90948,11.57947,0,21,9.42053,21,21Zm-42,0c0-5.37781,2.04926-10.27399,5.38568-13.99304l29.60736,29.60736c-3.71906,3.33643-8.61523,5.38568-13.99304,5.38568-11.57947,0-21-9.42053-21-21Z"/></svg>