<?xml version="1.0" encoding="UTF-8"?><svg id="Ebene_1" xmlns="http://www.w3.org/2000/svg" width="48" height="48" viewBox="0 0 48 48"><defs><style>.cls-1{fill:#fff;}</style></defs><path class="cls-1" d="M38.4177,19.12968c-.69576-1.46883-1.54613-2.78304-2.70574-3.94264-1.1596-1.08229-2.47382-2.00998-4.01995-2.62843s-3.16958-.92768-4.87032-.92768c-2.62843,0-5.02494,.46384-7.26683,1.46883s-4.17456,2.3192-5.798,4.09726c-1.62344,1.70075-2.93766,3.78803-3.86534,6.18454-.92768,2.39651-1.39152,5.02494-1.39152,7.73067v2.93766c0,.61845,.23192,1.1596,.69576,1.62344,.46384,.46384,1.00499,.69576,1.62344,.69576H27.36284c1.70075,0,3.24688-.30923,4.71571-1.00499,1.46883-.61845,2.70574-1.54613,3.86534-2.62843,1.0823-1.1596,1.93267-2.47382,2.62843-3.94264,.61845-1.54613,.92768-3.16958,.92768-4.79302-.07731-1.77805-.38654-3.4015-1.0823-4.87032Zm-25.12469,2.3192c.85037-1.39152,1.93267-2.70574,3.16958-3.86534l5.95262,2.47382c.69576,.23192,1.1596,.61845,1.54613,1.08229,.30923,.54115,.54115,1.1596,.54115,1.93267,0,.85037-.30923,1.62344-.92768,2.24189-.61845,.61845-1.39152,.92768-2.3192,.92768H11.36035c.38653-1.85536,1.08229-3.4015,1.93267-4.79302Z"/></svg>