<?xml version="1.0" encoding="utf-8"?>
<!-- Generator: Adobe Illustrator 27.6.1, SVG Export Plug-In . SVG Version: 6.00 Build 0)  -->
<svg version="1.1" id="Ebene_1" xmlns="http://www.w3.org/2000/svg" xmlns:xlink="http://www.w3.org/1999/xlink" x="0px" y="0px"
	 viewBox="0 0 48 48" style="enable-background:new 0 0 48 48;" xml:space="preserve">
<style type="text/css">
	.st0{fill:#FFFFFF;}
</style>
<path class="st0" d="M42.4,16.2c-1-2.4-2.5-4.5-4.3-6.4c-1.8-1.8-3.9-3.2-6.3-4.3S26.8,4,24,4s-5.4,0.5-7.8,1.6S11.7,8,9.9,9.8
	s-3.2,3.9-4.3,6.3S4,21.2,4,24s0.5,5.4,1.6,7.8c1.1,2.4,2.5,4.5,4.3,6.4c1.8,1.8,3.9,3.2,6.4,4.3c2.4,1,5,1.6,7.8,1.6
	s5.4-0.5,7.8-1.6s4.5-2.5,6.4-4.3c1.8-1.8,3.2-3.9,4.3-6.4c1-2.4,1.6-5,1.6-7.8C44,21.2,43.5,18.6,42.4,16.2z M25.7,32.5
	c0,0.4-0.1,0.8-0.4,1.1S24.7,34,24.2,34s-0.8-0.1-1.1-0.4c-0.3-0.3-0.4-0.6-0.4-1.1v-9c0-0.4,0.1-0.8,0.4-1.1
	c0.3-0.3,0.6-0.4,1.1-0.4s0.8,0.1,1.1,0.4c0.3,0.3,0.4,0.6,0.4,1.1V32.5z M25.2,17.8c-0.3,0.3-0.7,0.5-1.2,0.5s-0.9-0.2-1.2-0.5
	c-0.3-0.3-0.5-0.7-0.5-1.1c0-0.5,0.2-0.9,0.5-1.2S23.5,15,24,15s0.9,0.2,1.2,0.5c0.3,0.3,0.5,0.7,0.5,1.2
	C25.7,17.2,25.5,17.5,25.2,17.8z"/>
</svg>
