<?xml version="1.0" encoding="utf-8"?>
<!-- Generator: Adobe Illustrator 27.0.0, SVG Export Plug-In . SVG Version: 6.00 Build 0)  -->
<svg version="1.1" id="Ebene_1" xmlns="http://www.w3.org/2000/svg" xmlns:xlink="http://www.w3.org/1999/xlink" x="0px" y="0px"
	 viewBox="0 0 48 48" style="enable-background:new 0 0 48 48;" xml:space="preserve">
<style type="text/css">
	.st0{fill:#FFFFFF;}
</style>
<path class="st0" d="M42.4,16.2c-1-2.4-2.5-4.5-4.3-6.4c-1.8-1.8-3.9-3.2-6.4-4.3S26.8,4,24,4c-2.7,0-5.3,0.5-7.8,1.6
	S11.7,8,9.9,9.8c-1.8,1.8-3.2,3.9-4.3,6.4S4,21.2,4,24c0,2.7,0.5,5.3,1.6,7.8s2.5,4.6,4.3,6.4c1.8,1.8,3.9,3.2,6.4,4.3
	s5,1.6,7.8,1.6c2.8,0,5.4-0.5,7.8-1.6s4.5-2.5,6.4-4.3c1.8-1.8,3.2-3.9,4.3-6.4s1.6-5,1.6-7.8C44,21.2,43.5,18.6,42.4,16.2z
	 M21,33.1l-8.2-8.3l2.2-2.2l6,6l11.9-11.8l2.3,2.2L21,33.1z"/>
</svg>
