<?xml version="1.0" encoding="utf-8"?>
<!-- Generator: Adobe Illustrator 27.0.0, SVG Export Plug-In . SVG Version: 6.00 Build 0)  -->
<svg version="1.1" id="Ebene_1" xmlns="http://www.w3.org/2000/svg" xmlns:xlink="http://www.w3.org/1999/xlink" x="0px" y="0px"
	 viewBox="0 0 48 48" style="enable-background:new 0 0 48 48;" xml:space="preserve">
<style type="text/css">
	.st0{fill:#FFFFFF;}
</style>
<path class="st0" d="M18.6,42.6L1.1,25c-0.2-0.2-0.3-0.3-0.4-0.5c-0.1-0.2-0.1-0.4-0.1-0.5c0-0.2,0-0.4,0.1-0.6
	c0.1-0.2,0.2-0.3,0.4-0.5L18.6,5.4C19,5,19.4,4.8,20,4.8s1,0.2,1.4,0.5C21.8,5.8,22,6.3,22,6.8s-0.2,1-0.6,1.4L5.7,24l15.8,15.8
	c0.4,0.4,0.6,0.9,0.6,1.4s-0.2,1-0.6,1.4C21,43,20.5,43.2,20,43.2S19,43,18.6,42.6z"/>
</svg>
