<?xml version="1.0" encoding="utf-8"?>
<!-- Generator: Adobe Illustrator 27.6.1, SVG Export Plug-In . SVG Version: 6.00 Build 0)  -->
<svg version="1.1" id="Ebene_1" xmlns="http://www.w3.org/2000/svg" xmlns:xlink="http://www.w3.org/1999/xlink" x="0px" y="0px"
	 viewBox="0 0 48 48" style="enable-background:new 0 0 48 48;" xml:space="preserve">
<style type="text/css">
	.st0{fill:#FFFFFF;}
</style>
<path class="st0" d="M41.1,6.9C40.5,6.3,39.8,6,39,6H9C8.2,6,7.5,6.3,6.9,6.9S6,8.2,6,9v30c0,0.8,0.3,1.5,0.9,2.1
	C7.5,41.7,8.2,42,9,42h30c0.8,0,1.5-0.3,2.1-0.9c0.6-0.6,0.9-1.3,0.9-2.1V9C42,8.2,41.7,7.5,41.1,6.9z M15.2,15.2
	c0.5-0.5,1.1-0.7,1.8-0.7s1.3,0.2,1.8,0.7s0.7,1.1,0.7,1.8s-0.2,1.3-0.7,1.8s-1.1,0.7-1.8,0.7c-0.7,0-1.3-0.2-1.8-0.7
	s-0.7-1.1-0.7-1.8C14.5,16.3,14.7,15.7,15.2,15.2z M35.4,33.8c-0.1,0.3-0.4,0.4-0.6,0.4H13.3c-0.3,0-0.5-0.1-0.6-0.4
	s-0.1-0.5,0.1-0.8l4.3-5.6c0.2-0.2,0.4-0.3,0.6-0.3s0.4,0.1,0.6,0.3l4,5.6l6-7.8c0.2-0.2,0.4-0.3,0.6-0.3s0.4,0.1,0.6,0.3l5.8,7.8
	C35.5,33.2,35.5,33.5,35.4,33.8z"/>
</svg>
