<?xml version="1.0" encoding="utf-8"?>
<!-- Generator: Adobe Illustrator 27.6.1, SVG Export Plug-In . SVG Version: 6.00 Build 0)  -->
<svg version="1.1" id="Ebene_1" xmlns="http://www.w3.org/2000/svg" xmlns:xlink="http://www.w3.org/1999/xlink" x="0px" y="0px"
	 viewBox="0 0 48 48" style="enable-background:new 0 0 48 48;" xml:space="preserve">
<style type="text/css">
	.st0{fill:#1D1D1B;}
</style>
<path class="st0" d="M43.1,11.3c-0.6-0.6-1.3-0.9-2.1-0.9h-7.3L30.9,7c-0.3-0.4-0.6-0.6-1-0.8C29.5,6.1,29.1,6,28.6,6h-9.2
	c-0.5,0-0.9,0.1-1.3,0.2c-0.4,0.2-0.7,0.4-1,0.8l-2.8,3.3H7c-0.8,0-1.5,0.3-2.1,0.9C4.3,11.9,4,12.6,4,13.3V39
	c0,0.8,0.3,1.5,0.9,2.1C5.5,41.7,6.2,42,7,42h34c0.8,0,1.5-0.3,2.1-0.9c0.6-0.6,0.9-1.3,0.9-2.1V13.3C44,12.6,43.7,11.9,43.1,11.3z
	 M24,34.2c-4.4,0-8-3.6-8-8s3.6-8,8-8s8,3.6,8,8S28.4,34.2,24,34.2z M39.5,16.7c-1.1,0-2-0.9-2-2s0.9-2,2-2s2,0.9,2,2
	S40.6,16.7,39.5,16.7z"/>
</svg>
